<svg width="2312" height="1758" viewBox="0 0 2312 1758" fill="none" xmlns="http://www.w3.org/2000/svg"><path d="M104 881H0L303 0l801 .5 14 103.5H371L256 439l251 730 99.172-288.5H466.5L431 777h210.5L758 439h104l-303 881H455L204 590z" fill="#fff"/><path d="M708 1320H604l240-698h104zm258-751H862l44.906-130H1011zm-113 751H749l303-881h104l77.5 656L1459 439h104l-303 881h-104l-77.5-656zm552.55 0H1301.5l44.96-130h104.04zm62.95-183h-104l240-698h104z" fill="#fff"/><path d="M1554 1319.5h-103l302.74-880H1857l251.5 730.5L2209 878.5h103L2009 1758h-800l-13-102.5h745.5l115-335.5-251-730-99.2 288.5H1846l35.5 103.5h-211z" fill="#fff"/><path d="M104 881H0L303 0l801 .5 14 103.5H371L256 439l251 730 99.172-288.5H466.5L431 777h210.5L758 439h104l-303 881H455L204 590z" stroke="#fff"/><path d="M708 1320H604l240-698h104zm258-751H862l44.906-130H1011zm-113 751H749l303-881h104l77.5 656L1459 439h104l-303 881h-104l-77.5-656zm552.55 0H1301.5l44.96-130h104.04zm62.95-183h-104l240-698h104z" stroke="#fff"/><path d="M1554 1319.5h-103l302.74-880H1857l251.5 730.5L2209 878.5h103L2009 1758h-800l-13-102.5h745.5l115-335.5-251-730-99.2 288.5H1846l35.5 103.5h-211z" stroke="#fff"/></svg>